<mxfile host="app.diagrams.net" modified="2023-08-27T06:16:59.065Z" agent="Mozilla/5.0 (Windows NT 10.0; Win64; x64) AppleWebKit/537.36 (KHTML, like Gecko) Chrome/116.0.0.0 Safari/537.36" version="21.6.8" etag="CsinQuAdZ2KknbM7Ub9m" type="github">
  <diagram name="Page-1" id="LK2rHpjK42drUx13zbVg">
    <mxGraphModel>
      <root>
        <mxCell id="0" />
        <mxCell id="1" parent="0" />
      </root>
    </mxGraphModel>
  </diagram>
</mxfile>
